<?xml version="1.0" encoding="UTF-8" standalone="no"?>
<!DOCTYPE svg PUBLIC "-//W3C//DTD SVG 1.1//EN"
 "http://www.w3.org/Graphics/SVG/1.1/DTD/svg11.dtd">
<!-- Generated by graphviz version 2.40.1 (20161225.0304)
 -->
<!-- Title: dependencies Pages: 1 -->
<svg width="680pt" height="284pt"
 viewBox="0.00 0.00 680.00 284.00" xmlns="http://www.w3.org/2000/svg" xmlns:xlink="http://www.w3.org/1999/xlink">
<g id="graph0" class="graph" transform="scale(1 1) rotate(0) translate(4 280)">
<title>dependencies</title>
<polygon fill="#ffffff" stroke="transparent" points="-4,4 -4,-280 676,-280 676,4 -4,4"/>
<text text-anchor="start" x="315.0091" y="-42.4" font-family="sans-serif" font-weight="bold" font-size="14.00" fill="#000000">Legend</text>
<polygon fill="#ffffb3" stroke="transparent" points="102,-10 102,-30 122,-30 122,-10 102,-10"/>
<text text-anchor="start" x="125.629" y="-15.4" font-family="sans-serif" font-size="14.00" fill="#000000"> &#160;Declarations</text>
<polygon fill="#8dd3c7" stroke="transparent" points="215,-10 215,-30 235,-30 235,-10 215,-10"/>
<text text-anchor="start" x="238.7251" y="-15.4" font-family="sans-serif" font-size="14.00" fill="#000000"> &#160;Module</text>
<polygon fill="#80b1d3" stroke="transparent" points="301,-10 301,-30 321,-30 321,-10 301,-10"/>
<text text-anchor="start" x="324.7812" y="-15.4" font-family="sans-serif" font-size="14.00" fill="#000000"> &#160;Bootstrap</text>
<polygon fill="#fdb462" stroke="transparent" points="398,-10 398,-30 418,-30 418,-10 398,-10"/>
<text text-anchor="start" x="421.6732" y="-15.4" font-family="sans-serif" font-size="14.00" fill="#000000"> &#160;Providers</text>
<polygon fill="#fb8072" stroke="transparent" points="494,-10 494,-30 514,-30 514,-10 494,-10"/>
<text text-anchor="start" x="517.7258" y="-15.4" font-family="sans-serif" font-size="14.00" fill="#000000"> &#160;Exports</text>
<g id="clust1" class="cluster">
<title>cluster_AppModule</title>
<polygon fill="none" stroke="#000000" stroke-dasharray="1,5" points="8,-70 8,-268 664,-268 664,-70 8,-70"/>
</g>
<g id="clust2" class="cluster">
<title>cluster_AppModule_declarations</title>
<polygon fill="none" stroke="#000000" points="534,-78 534,-130 656,-130 656,-78 534,-78"/>
</g>
<g id="clust4" class="cluster">
<title>cluster_AppModule_imports</title>
<polygon fill="none" stroke="#000000" points="16,-78 16,-130 526,-130 526,-78 16,-78"/>
</g>
<g id="clust6" class="cluster">
<title>cluster_AppModule_bootstrap</title>
<polygon fill="none" stroke="#000000" points="296,-208 296,-260 420,-260 420,-208 296,-208"/>
</g>
<!-- AppComponent -->
<g id="node1" class="node">
<title>AppComponent</title>
<polygon fill="#ffffb3" stroke="#000000" points="647.9399,-122 542.0601,-122 542.0601,-86 647.9399,-86 647.9399,-122"/>
<text text-anchor="middle" x="595" y="-99.8" font-family="Times,serif" font-size="14.00" fill="#000000">AppComponent</text>
</g>
<!-- AppModule -->
<g id="node2" class="node">
<title>AppModule</title>
<polygon fill="#8dd3c7" stroke="#000000" points="399.6571,-187 396.6571,-191 375.6571,-191 372.6571,-187 316.3429,-187 316.3429,-151 399.6571,-151 399.6571,-187"/>
<text text-anchor="middle" x="358" y="-164.8" font-family="Times,serif" font-size="14.00" fill="#000000">AppModule</text>
</g>
<!-- AppComponent&#45;&gt;AppModule -->
<g id="edge1" class="edge">
<title>AppComponent&#45;&gt;AppModule</title>
<path fill="none" stroke="#000000" d="M595,-122.1061C595,-141.3391 595,-169 595,-169 595,-169 409.8253,-169 409.8253,-169"/>
<polygon fill="#000000" stroke="#000000" points="409.8253,-165.5001 399.8253,-169 409.8253,-172.5001 409.8253,-165.5001"/>
</g>
<!-- AppComponent  -->
<g id="node6" class="node">
<title>AppComponent </title>
<polygon fill="#80b1d3" stroke="#000000" points="412.439,-252 303.561,-252 303.561,-216 412.439,-216 412.439,-252"/>
<text text-anchor="middle" x="358" y="-229.8" font-family="Times,serif" font-size="14.00" fill="#000000">AppComponent </text>
</g>
<!-- AppModule&#45;&gt;AppComponent  -->
<g id="edge5" class="edge">
<title>AppModule&#45;&gt;AppComponent </title>
<path fill="none" stroke="#000000" stroke-dasharray="1,5" d="M358,-187.1061C358,-187.1061 358,-205.991 358,-205.991"/>
<polygon fill="#000000" stroke="#000000" points="354.5001,-205.9909 358,-215.991 361.5001,-205.991 354.5001,-205.9909"/>
</g>
<!-- CustomMaterialModule -->
<g id="node3" class="node">
<title>CustomMaterialModule</title>
<polygon fill="#8dd3c7" stroke="#000000" points="518.0337,-122 515.0337,-126 494.0337,-126 491.0337,-122 367.9663,-122 367.9663,-86 518.0337,-86 518.0337,-122"/>
<text text-anchor="middle" x="443" y="-99.8" font-family="Times,serif" font-size="14.00" fill="#000000">CustomMaterialModule</text>
</g>
<!-- CustomMaterialModule&#45;&gt;AppModule -->
<g id="edge2" class="edge">
<title>CustomMaterialModule&#45;&gt;AppModule</title>
<path fill="none" stroke="#000000" d="M383.7809,-122.1061C383.7809,-122.1061 383.7809,-140.991 383.7809,-140.991"/>
<polygon fill="#000000" stroke="#000000" points="380.2809,-140.9909 383.7809,-150.991 387.2809,-140.991 380.2809,-140.9909"/>
</g>
<!-- CustomCovalentModule -->
<g id="node4" class="node">
<title>CustomCovalentModule</title>
<polygon fill="#8dd3c7" stroke="#000000" points="349.6596,-122 346.6596,-126 325.6596,-126 322.6596,-122 196.3404,-122 196.3404,-86 349.6596,-86 349.6596,-122"/>
<text text-anchor="middle" x="273" y="-99.8" font-family="Times,serif" font-size="14.00" fill="#000000">CustomCovalentModule</text>
</g>
<!-- CustomCovalentModule&#45;&gt;AppModule -->
<g id="edge3" class="edge">
<title>CustomCovalentModule&#45;&gt;AppModule</title>
<path fill="none" stroke="#000000" d="M333.0007,-122.1061C333.0007,-122.1061 333.0007,-140.991 333.0007,-140.991"/>
<polygon fill="#000000" stroke="#000000" points="329.5008,-140.9909 333.0007,-150.991 336.5008,-140.991 329.5008,-140.9909"/>
</g>
<!-- CustomPrimeNgModule -->
<g id="node5" class="node">
<title>CustomPrimeNgModule</title>
<polygon fill="#8dd3c7" stroke="#000000" points="177.6582,-122 174.6582,-126 153.6582,-126 150.6582,-122 24.3418,-122 24.3418,-86 177.6582,-86 177.6582,-122"/>
<text text-anchor="middle" x="101" y="-99.8" font-family="Times,serif" font-size="14.00" fill="#000000">CustomPrimeNgModule</text>
</g>
<!-- CustomPrimeNgModule&#45;&gt;AppModule -->
<g id="edge4" class="edge">
<title>CustomPrimeNgModule&#45;&gt;AppModule</title>
<path fill="none" stroke="#000000" d="M101,-122.1061C101,-141.3391 101,-169 101,-169 101,-169 306.1365,-169 306.1365,-169"/>
<polygon fill="#000000" stroke="#000000" points="306.1366,-172.5001 316.1365,-169 306.1365,-165.5001 306.1366,-172.5001"/>
</g>
</g>
</svg>
